<svg xmlns="http://www.w3.org/2000/svg" width="762.376" height="744.139" viewBox="0 0 762.376 744.139"><g transform="translate(-1121.473 -203.237)"><g transform="translate(1849.84 203.237) rotate(87)" fill="#113f67"><path d="M 540.1141967773438 728.8663940429688 C 533.8458251953125 728.8663940429688 527.0640869140625 728.5541381835938 519.9577026367188 727.9381103515625 C 513.211181640625 727.3533325195312 505.9584045410156 726.476318359375 498.4008178710938 725.331298828125 C 484.5263977050781 723.2291870117188 469.4427185058594 720.2277221679688 452.2879028320312 716.1553344726562 C 420.6071166992188 708.6343994140625 387.9875183105469 698.9049072265625 356.44189453125 689.4957885742188 C 331.1697082519531 681.9578857421875 307.2991027832031 674.8380126953125 286.2108154296875 669.5653076171875 C 274.9169921875 666.7415161132812 265.3388977050781 664.6757202148438 256.9291076660156 663.2496948242188 C 247.5546112060547 661.6600952148438 239.7870025634766 660.8873901367188 233.1826019287109 660.8873901367188 C 217.4085998535156 660.8873901367188 201.6443023681641 658.6336059570312 186.3274993896484 654.188720703125 C 171.3972015380859 649.8558959960938 156.710205078125 643.3901977539062 142.6746063232422 634.9711303710938 C 128.8895111083984 626.7023315429688 115.5928039550781 616.466796875 103.1539077758789 604.5491333007812 C 90.82960510253906 592.7412109375 79.23970794677734 579.1796875 68.70620727539062 564.2413330078125 C 58.17050552368164 549.2998046875 48.60490417480469 532.8580322265625 40.27530288696289 515.3727416992188 C 31.86460494995117 497.7171020507812 24.64050483703613 478.8420104980469 18.80380439758301 459.2716979980469 C 12.85860443115234 439.3377990722656 8.29250431060791 418.4768981933594 5.232304573059082 397.2686157226562 C 2.092204570770264 375.506103515625 0.5000045299530029 353.1070251464844 0.5000045299530029 330.6937255859375 C 0.5000045299530029 308.2804260253906 2.092204570770264 285.8813171386719 5.232304573059082 264.1188049316406 C 8.29250431060791 242.9105072021484 12.85860443115234 222.0496063232422 18.80380439758301 202.1157073974609 C 24.64050483703613 182.54541015625 31.86460494995117 163.6703186035156 40.27530288696289 146.0147094726562 C 48.60490417480469 128.5294189453125 58.17050552368164 112.0876083374023 68.70620727539062 97.14611053466797 C 79.23970794677734 82.20771026611328 90.82960510253906 68.64620971679688 103.1539077758789 56.83831024169922 C 115.5928039550781 44.92061233520508 128.8895111083984 34.68511199951172 142.6746063232422 26.41631126403809 C 156.710205078125 17.99721145629883 171.3972015380859 11.5315113067627 186.3274993896484 7.19871187210083 C 201.6443023681641 2.753811836242676 217.4085998535156 0.5000117421150208 233.1826019287109 0.5000117421150208 C 239.6480102539062 0.5000117421150208 250.1091003417969 4.185711860656738 264.275390625 11.45461177825928 C 277.3843994140625 18.18111228942871 293.8345947265625 28.06561088562012 313.1690979003906 40.83371353149414 C 330.9158935546875 52.55331039428711 351.2498168945312 66.80381011962891 373.6058044433594 83.18941497802734 C 394.0867004394531 98.20050811767578 416.2442016601562 114.9858093261719 439.4626159667969 133.0790100097656 C 481.0512084960938 165.4873046875 524.9248046875 201.2265167236328 563.0014038085938 233.7131042480469 C 598.86328125 264.3099060058594 625.07177734375 288.1867980957031 634.9069213867188 299.2214965820312 C 640.7169189453125 305.7400207519531 644.6500244140625 311.0356140136719 646.9310302734375 315.4110107421875 C 649.0397338867188 319.4557189941406 649.7357788085938 322.7235107421875 649.0592041015625 325.4010009765625 C 647.6063842773438 331.1497192382812 639.7960815429688 333.980712890625 629.9080200195312 337.5649108886719 C 618.9329833984375 341.5429992675781 605.2742919921875 346.4939270019531 594.3679809570312 357.5231018066406 C 591.5233154296875 360.3998107910156 588.9700927734375 363.5976257324219 586.7791748046875 367.0276184082031 C 584.4010009765625 370.7510070800781 582.3682861328125 374.8746032714844 580.7374877929688 379.2841186523438 C 578.9896850585938 384.0101013183594 577.647705078125 389.2148132324219 576.7489013671875 394.7536010742188 C 575.7938842773438 400.6383972167969 575.3096923828125 407.0809020996094 575.3096923828125 413.9022216796875 C 575.3096923828125 439.2741088867188 584.41259765625 480.45751953125 594.0499877929688 524.05908203125 C 601.5092163085938 557.8062133789062 609.2222900390625 592.7023315429688 613.4188232421875 623.2230834960938 C 615.6867065429688 639.7171020507812 616.714599609375 653.3165893554688 616.5610961914062 664.798828125 C 616.477783203125 671.0364990234375 616.0300903320312 676.6826171875 615.2305908203125 681.5802001953125 C 614.3914794921875 686.7200317382812 613.1373901367188 691.2056884765625 611.5032958984375 694.91259765625 C 608.8338012695312 700.9681396484375 605.150634765625 706.27490234375 600.5560302734375 710.6854858398438 C 596.1502075195312 714.9149169921875 590.7730102539062 718.4483032226562 584.57373046875 721.1875 C 578.648681640625 723.805419921875 571.7933349609375 725.7772216796875 564.1976928710938 727.0480346679688 C 556.9860229492188 728.254638671875 548.8831176757812 728.8663940429688 540.1141967773438 728.8663940429688 Z" stroke="none"/><path d="M 233.1824951171875 1 C 217.4557189941406 1 201.7383117675781 3.24713134765625 186.466796875 7.67889404296875 C 171.5778198242188 11.99969482421875 156.9304809570312 18.4481201171875 142.9318237304688 26.8450927734375 C 129.1787109375 35.0947265625 115.9118041992188 45.30743408203125 103.4998168945312 57.19940185546875 C 91.19873046875 68.985107421875 79.6298828125 82.52203369140625 69.11480712890625 97.4342041015625 C 58.59539794921875 112.3527221679688 49.044189453125 128.7698974609375 40.7266845703125 146.2297973632812 C 32.32708740234375 163.8621215820312 25.1123046875 182.712890625 19.28289794921875 202.2586059570312 C 13.3447265625 222.169189453125 8.78387451171875 243.0059814453125 5.72723388671875 264.190185546875 C 2.59051513671875 285.92919921875 1 308.30419921875 1 330.6937255859375 C 1 353.0832214355469 2.59051513671875 375.4582214355469 5.72723388671875 397.1972045898438 C 8.78387451171875 418.3814086914062 13.3447265625 439.2182006835938 19.28289794921875 459.1288146972656 C 25.1123046875 478.6744995117188 32.32708740234375 497.5252990722656 40.7266845703125 515.1575927734375 C 49.044189453125 532.6174926757812 58.59539794921875 549.0347290039062 69.11480712890625 563.9532470703125 C 79.6298828125 578.8654174804688 91.19873046875 592.40234375 103.4998168945312 604.18798828125 C 115.9118041992188 616.0800170898438 129.1787109375 626.292724609375 142.9318237304688 634.5422973632812 C 156.9304809570312 642.9393310546875 171.5778198242188 649.3876953125 186.466796875 653.70849609375 C 201.7383117675781 658.1403198242188 217.4557189941406 660.3873901367188 233.1824951171875 660.3873901367188 C 239.8152160644531 660.3873901367188 247.610107421875 661.1624145507812 257.0126037597656 662.7567138671875 C 265.4352111816406 664.1849365234375 275.0256042480469 666.2532958984375 286.3320007324219 669.0802001953125 C 307.4310913085938 674.3555908203125 331.3070068359375 681.4771118164062 356.584716796875 689.0166015625 C 388.1235961914062 698.4237060546875 420.7362976074219 708.151123046875 452.4033203125 715.668701171875 C 469.5446166992188 719.738037109375 484.6148986816406 722.7369384765625 498.4755249023438 724.8367919921875 C 506.022705078125 725.9802856445312 513.2647705078125 726.8561401367188 520.0007934570312 727.43994140625 C 527.0928955078125 728.0546264648438 533.8599853515625 728.3663330078125 540.1141357421875 728.3663330078125 C 548.85546875 728.3663330078125 556.9305419921875 727.7568359375 564.1151123046875 726.5548095703125 C 571.6694946289062 725.2908935546875 578.4846801757812 723.3311157226562 584.3715209960938 720.72998046875 C 590.517333984375 718.0145263671875 595.8461303710938 714.5136108398438 600.209716796875 710.32470703125 C 604.7570190429688 705.9595336914062 608.40283203125 700.7062377929688 611.0457763671875 694.7108154296875 C 612.6629028320312 691.0426025390625 613.90478515625 686.5977172851562 614.7371215820312 681.4996337890625 C 615.53271484375 676.6263427734375 615.9782104492188 671.005126953125 616.0612182617188 664.7921142578125 C 616.2142944335938 653.335205078125 615.1879272460938 639.7601318359375 612.9235229492188 623.2911987304688 C 608.7297973632812 592.79052734375 601.018798828125 557.904541015625 593.5617065429688 524.1671142578125 C 583.9183349609375 480.5381164550781 574.8096923828125 439.3287048339844 574.8096923828125 413.9022216796875 C 574.8096923828125 407.05419921875 575.2960815429688 400.584716796875 576.25537109375 394.6735229492188 C 577.1593017578125 389.1029052734375 578.5095825195312 383.8668212890625 580.2686157226562 379.1106262207031 C 581.9116821289062 374.6678161621094 583.9603881835938 370.5119018554688 586.35791015625 366.7585144042969 C 588.5676879882812 363.2987976074219 591.1430053710938 360.0733032226562 594.0125122070312 357.1715087890625 C 604.9979248046875 346.0623168945312 618.7153930664062 341.0901184082031 629.7376098632812 337.0948181152344 C 634.8067016601562 335.2574157714844 639.1846313476562 333.6705017089844 642.5300903320312 331.7902221679688 C 646.0278930664062 329.8244018554688 647.948486328125 327.7552185058594 648.5744018554688 325.2785034179688 C 649.2196044921875 322.7253112792969 648.5369873046875 319.5732116699219 646.4876098632812 315.6421203613281 C 644.2258911132812 311.3039245605469 640.315673828125 306.04150390625 634.5336303710938 299.55419921875 C 624.712890625 288.5357055664062 598.522216796875 264.6762084960938 562.6768798828125 234.0933837890625 C 524.605712890625 201.6115112304688 480.7382202148438 165.8773193359375 439.1552124023438 133.473388671875 C 415.9407043457031 115.3832397460938 393.7872009277344 98.60089111328125 373.3102111816406 83.59259033203125 C 350.960693359375 67.2119140625 330.6336059570312 52.96612548828125 312.8934936523438 41.25091552734375 C 293.57421875 28.492919921875 277.139892578125 18.61761474609375 264.047119140625 11.8995361328125 C 249.9521179199219 4.6671142578125 239.5677185058594 1 233.1824951171875 1 M 233.1824951171875 0 C 287.7864074707031 0 595.44580078125 254.1961059570312 635.2800903320312 298.8888244628906 C 689.1668090820312 359.347412109375 575.8096923828125 308.7029113769531 575.8096923828125 413.9022216796875 C 575.8096923828125 478.1903076171875 634.3861083984375 644.2442016601562 611.9608154296875 695.1141967773438 C 600.9052734375 720.1928100585938 574.4716796875 729.3663330078125 540.1140747070312 729.3663330078125 C 446.5653686523438 729.3663330078125 294.2176818847656 661.3873901367188 233.1824951171875 661.3873901367188 C 104.3994140625 661.3873901367188 0 513.330810546875 0 330.6937255859375 C 0 148.056640625 104.3994140625 0 233.1824951171875 0 Z" stroke="none" fill="#707070"/></g><g transform="translate(1832.82 914.912) rotate(177)" fill="#226597"><path d="M 515.5895385742188 709.4779052734375 C 509.6066284179688 709.4779052734375 503.1339416503906 709.1738891601562 496.3511352539062 708.5744018554688 C 489.91162109375 708.0051879882812 482.9888305664062 707.151611328125 475.7750244140625 706.037109375 C 462.5315246582031 703.9910888671875 448.1336364746094 701.069580078125 431.758544921875 697.10546875 C 401.5171203613281 689.7847900390625 370.3791198730469 680.3140869140625 340.2663269042969 671.1552734375 C 316.1412353515625 663.8175659179688 293.3541259765625 656.8869018554688 273.2227478027344 651.7542114257812 C 262.4410400390625 649.0053100585938 253.2970275878906 646.9942016601562 245.2682342529297 645.6060180664062 C 236.3175354003906 644.0582885742188 228.9009399414062 643.3059692382812 222.5945281982422 643.3059692382812 C 207.5398406982422 643.3059692382812 192.4943389892578 641.1126098632812 177.8758392333984 636.78662109375 C 163.6258392333984 632.5697021484375 149.6079406738281 626.2767944335938 136.2116394042969 618.0827026367188 C 123.0539321899414 610.0346069335938 110.3623352050781 600.072265625 98.48923492431641 588.472412109375 C 86.72533416748047 576.9790649414062 75.66243743896484 563.7788696289062 65.60773468017578 549.2384033203125 C 55.55073547363281 534.694580078125 46.41983413696289 518.6903686523438 38.46873474121094 501.6703796386719 C 30.44003295898438 484.4844970703125 23.54413414001465 466.1116027832031 17.9725341796875 447.0617980957031 C 12.29733371734619 427.6579895019531 7.938633918762207 407.3519897460938 5.017433643341064 386.7075805664062 C 2.019933700561523 365.5238037109375 0.5000337958335876 343.7203063964844 0.5000337958335876 321.9029846191406 C 0.5000337958335876 300.085693359375 2.019933700561523 278.2821960449219 5.017433643341064 257.098388671875 C 7.938633918762207 236.4539947509766 12.29733371734619 216.1479949951172 17.9725341796875 196.7441864013672 C 23.54413414001465 177.6943969726562 30.44003295898438 159.3214874267578 38.46873474121094 142.1355895996094 C 46.41983413696289 125.115592956543 55.55073547363281 109.1113891601562 65.60773468017578 94.56758880615234 C 75.66243743896484 80.02709197998047 86.72533416748047 66.82688903808594 98.48923492431641 55.33359146118164 C 110.3623352050781 43.73369216918945 123.0539321899414 33.77139282226562 136.2116394042969 25.72329139709473 C 149.6079406738281 17.5291919708252 163.6258392333984 11.23629188537598 177.8758392333984 7.019392490386963 C 192.4943389892578 2.693392276763916 207.5398406982422 0.4999923408031464 222.5945281982422 0.4999923408031464 C 228.7613372802734 0.4999923408031464 238.7427368164062 4.086592197418213 252.2616271972656 11.1600923538208 C 264.7746276855469 17.7073917388916 280.4771423339844 27.32869148254395 298.9329223632812 39.75679397583008 C 315.8736267089844 51.16469192504883 335.2838439941406 65.03619384765625 356.6245422363281 80.98589324951172 C 376.1753234863281 95.59789276123047 397.3264465332031 111.9368896484375 419.4904479980469 129.5489959716797 C 459.1904296875 161.0955963134766 501.0716247558594 195.8844909667969 537.4191284179688 227.5072937011719 C 571.6520385742188 257.290283203125 596.669921875 280.5318908691406 606.0579223632812 291.272705078125 C 611.6202392578125 297.6362915039062 615.3807373046875 302.8032836914062 617.5545043945312 307.0686950683594 C 619.5626220703125 311.0093994140625 620.216552734375 314.1914978027344 619.5533447265625 316.7969970703125 C 618.138916015625 322.3544921875 610.7059326171875 325.101806640625 601.29541015625 328.580078125 C 590.8163452148438 332.4533996582031 577.7748413085938 337.2738037109375 567.3603515625 348.0133056640625 C 564.64404296875 350.8143920898438 562.2061157226562 353.927978515625 560.1142578125 357.267578125 C 557.843505859375 360.892578125 555.90283203125 364.9072875976562 554.345947265625 369.2001037597656 C 552.6773071289062 373.80078125 551.396240234375 378.8674926757812 550.5381469726562 384.2593994140625 C 549.6264038085938 389.9880065917969 549.1642456054688 396.2593994140625 549.1642456054688 402.8995971679688 C 549.1642456054688 427.5973815917969 557.8538208007812 467.686279296875 567.0537109375 510.1289978027344 C 574.1742553710938 542.97900390625 581.537109375 576.947265625 585.5431518554688 606.6566162109375 C 587.7080078125 622.7119750976562 588.6891479492188 635.9497680664062 588.542724609375 647.1265869140625 C 588.463134765625 653.1983032226562 588.0358276367188 658.694091796875 587.2725219726562 663.4613037109375 C 586.4716186523438 668.464111328125 585.2747192382812 672.8300170898438 583.7150268554688 676.4378662109375 C 581.1673583984375 682.3309936523438 577.65234375 687.4954223632812 573.2677612304688 691.7874145507812 C 569.0638427734375 695.902587890625 563.9330444335938 699.3405151367188 558.017822265625 702.0056762695312 C 552.3641357421875 704.5531005859375 545.8223266601562 706.4716796875 538.5741577148438 707.7083129882812 C 531.691650390625 708.8825073242188 523.9585571289062 709.4779052734375 515.5895385742188 709.4779052734375 Z" stroke="none"/><path d="M 222.5945434570312 1 C 207.5879211425781 1 192.5901489257812 3.18646240234375 178.0177307128906 7.498779296875 C 163.8095397949219 11.703369140625 149.8316345214844 17.978515625 136.4725341796875 26.1497802734375 C 123.3468627929688 34.17840576171875 110.6849365234375 44.11749267578125 98.8387451171875 55.691162109375 C 87.09765625 67.16217041015625 76.0555419921875 80.33770751953125 66.0189208984375 94.85186767578125 C 55.9779052734375 109.372802734375 46.86102294921875 125.3524780273438 38.9217529296875 142.34716796875 C 30.90380859375 159.5100708007812 24.01690673828125 177.8590698242188 18.45245361328125 196.884521484375 C 12.783935546875 216.2653198242188 8.43035888671875 236.5477905273438 5.51251220703125 257.1683959960938 C 2.51824951171875 278.3291015625 1.00006103515625 300.1089782714844 1.00006103515625 321.9029846191406 C 1.00006103515625 343.6969909667969 2.51824951171875 365.476806640625 5.51251220703125 386.6376037597656 C 8.43035888671875 407.2581787109375 12.783935546875 427.5405883789062 18.45245361328125 446.92138671875 C 24.01690673828125 465.9468994140625 30.90380859375 484.2958984375 38.9217529296875 501.4588012695312 C 46.86102294921875 518.4534912109375 55.9779052734375 534.4332275390625 66.0189208984375 548.9539794921875 C 76.0555419921875 563.4682006835938 87.09765625 576.643798828125 98.8387451171875 588.1146850585938 C 110.6849365234375 599.6883544921875 123.3468627929688 609.6275634765625 136.4725341796875 617.6561889648438 C 149.8316345214844 625.8275146484375 163.8095397949219 632.1026000976562 178.0177307128906 636.3071899414062 C 192.5901489257812 640.6195068359375 207.5879211425781 642.8059692382812 222.5945434570312 642.8059692382812 C 228.9297485351562 642.8059692382812 236.3742370605469 643.5606689453125 245.3534240722656 645.11328125 C 253.3952331542969 646.503662109375 262.5517272949219 648.5175170898438 273.3463439941406 651.2697143554688 C 293.4887390136719 656.4052124023438 316.2811279296875 663.3375244140625 340.4118347167969 670.6768798828125 C 370.5177307128906 679.8336791992188 401.6487426757812 689.3021850585938 431.8761291503906 696.6195068359375 C 448.2374267578125 700.5802001953125 462.6217346191406 703.4990844726562 475.8512268066406 705.5429077148438 C 483.054443359375 706.6557006835938 489.9663391113281 707.5081176757812 496.39501953125 708.0762939453125 C 503.1632385253906 708.6744995117188 509.6212158203125 708.977783203125 515.5894165039062 708.977783203125 C 523.9302978515625 708.977783203125 531.6351318359375 708.384765625 538.4899291992188 707.2153930664062 C 545.6963500976562 705.9859008789062 552.1973266601562 704.0797119140625 557.8124389648438 701.5498046875 C 563.673828125 698.9088134765625 568.7560424804688 695.5039672851562 572.9179077148438 691.4299926757812 C 577.2560424804688 687.18359375 580.7342529296875 682.0726928710938 583.2560424804688 676.2393798828125 C 584.7992553710938 672.669677734375 585.9845581054688 668.3438720703125 586.77880859375 663.3822021484375 C 587.5382080078125 658.638916015625 587.9634399414062 653.16748046875 588.042724609375 647.1199951171875 C 588.1888427734375 635.968017578125 587.2091064453125 622.7542114257812 585.0475463867188 606.723388671875 C 581.0442504882812 577.0338745117188 573.6834106445312 543.0753784179688 566.5650634765625 510.235107421875 C 557.3593139648438 467.765380859375 548.6642456054688 427.6510009765625 548.6642456054688 402.8995971679688 C 548.6642456054688 396.2331848144531 549.1285400390625 389.935302734375 550.0443115234375 384.1807861328125 C 550.9074096679688 378.7576904296875 552.196533203125 373.6600952148438 553.8759155273438 369.0296020507812 C 555.44482421875 364.7037048339844 557.401123046875 360.6571044921875 559.6904296875 357.002197265625 C 561.8009033203125 353.6329040527344 564.2607421875 350.4914855957031 567.00146484375 347.665283203125 C 577.4949340820312 336.8441772460938 590.5955200195312 332.0019836425781 601.1220092773438 328.111083984375 C 605.9459228515625 326.3281860351562 610.1119384765625 324.7882995605469 613.2986450195312 322.966796875 C 616.6266479492188 321.0644836425781 618.460205078125 319.0647888183594 619.0687255859375 316.673583984375 C 619.7006225585938 314.1909790039062 619.0596313476562 311.1233825683594 617.1089477539062 307.2956848144531 C 614.9541015625 303.0673828125 611.2161254882812 297.9338073730469 605.6814575195312 291.6015930175781 C 596.3076171875 280.877197265625 571.3074340820312 257.6531982421875 537.0909423828125 227.884521484375 C 500.7488403320312 196.2664184570312 458.8737182617188 161.4826049804688 419.179443359375 129.9403686523438 C 397.0192260742188 112.3314208984375 375.8720397949219 95.9954833984375 356.3251342773438 81.38641357421875 C 334.9910278320312 65.44146728515625 315.5875244140625 51.57489013671875 298.6536254882812 40.17156982421875 C 280.2130432128906 27.753662109375 264.5265197753906 18.14190673828125 252.0298461914062 11.60321044921875 C 238.5832214355469 4.5673828125 228.6797485351562 1 222.5945434570312 1 M 222.5945434570312 0 C 274.7190246582031 0 568.4087524414062 247.4389038085938 606.434326171875 290.9434814453125 C 657.8742065429688 349.7949829101562 549.6642456054688 300.4967956542969 549.6642456054688 402.8995971679688 C 549.6642456054688 465.4786987304688 605.5809326171875 627.118408203125 584.1739501953125 676.6361694335938 C 573.620361328125 701.0481567382812 548.3870849609375 709.9778442382812 515.5894775390625 709.9778442382812 C 426.2885131835938 709.9778442382812 280.8584289550781 643.8059692382812 222.5945434570312 643.8059692382812 C 99.6590576171875 643.8059692382812 6.103515625e-05 499.6850891113281 6.103515625e-05 321.9029846191406 C 6.103515625e-05 144.1207885742188 99.6590576171875 0 222.5945434570312 0 Z" stroke="none" fill="#707070"/></g><g transform="translate(1702.829 851.566) rotate(-179)" fill="#fff"><path d="M 441.6156616210938 499.3419799804688 C 422.7550354003906 499.3419799804688 399.2668762207031 496.4927062988281 369.8090209960938 490.6312866210938 C 343.9064025878906 485.4772644042969 317.2358093261719 478.8096923828125 291.4433898925781 472.3616333007812 C 270.7797546386719 467.1957092285156 251.2620391845703 462.3162841796875 234.0190277099609 458.7027587890625 C 214.6570281982422 454.6452026367188 200.8787384033203 452.7553405761719 190.657958984375 452.7553405761719 C 177.7618103027344 452.7553405761719 164.8738098144531 451.2109985351562 152.3518829345703 448.165283203125 C 140.1473846435547 445.1966247558594 128.1422424316406 440.7669067382812 116.6698913574219 434.9990539550781 C 105.4039611816406 429.3350524902344 94.53752899169922 422.3240661621094 84.37239074707031 414.1610717773438 C 74.30196380615234 406.0740661621094 64.83188629150391 396.7862854003906 56.22510147094727 386.5556945800781 C 47.61695861816406 376.3236389160156 39.80160140991211 365.064208984375 32.99610137939453 353.0902709960938 C 26.12460327148438 341.0001220703125 20.22253227233887 328.0749206542969 15.45396041870117 314.6737060546875 C 10.59681701660156 301.0237121582031 6.86638879776001 286.7389221191406 4.366245746612549 272.2161865234375 C 1.800817370414734 257.3139038085938 0.500031590461731 241.9757080078125 0.500031590461731 226.6276245117188 C 0.500031590461731 211.2795562744141 1.800817370414734 195.9414215087891 4.366245746612549 181.0391235351562 C 6.86638879776001 166.5164184570312 10.59681701660156 152.2316284179688 15.45396041870117 138.5815582275391 C 20.22253227233887 125.1803436279297 26.12460327148438 112.2552032470703 32.99610137939453 100.1650543212891 C 39.80160140991211 88.19113159179688 47.61695861816406 76.93170166015625 56.22510147094727 66.69955444335938 C 64.83188629150391 56.46905899047852 74.30196380615234 47.18127059936523 84.37239074707031 39.09427261352539 C 94.53752899169922 30.93127250671387 105.4039611816406 23.92027282714844 116.6698913574219 18.25627136230469 C 128.1422424316406 12.4884147644043 140.1473846435547 8.058700561523438 152.3518829345703 5.090057849884033 C 164.8738098144531 2.044343709945679 177.7618103027344 0.499986469745636 190.657958984375 0.499986469745636 C 195.9414672851562 0.499986469745636 204.4911804199219 3.024843692779541 216.0696105957031 8.004415512084961 C 226.7861022949219 12.61327171325684 240.2343139648438 19.38627243041992 256.0408325195312 28.13527297973633 C 283.8012390136719 43.50077056884766 319.5068054199219 65.35962677001953 359.2974548339844 91.34870147705078 C 393.3005981445312 113.5577697753906 429.1719665527344 138.0493469238281 460.3035888671875 160.3119201660156 C 489.6216735839844 181.2775573730469 511.0463256835938 197.6370544433594 519.0841674804688 205.1956939697266 C 527.8566284179688 213.4451293945312 531.542236328125 218.9972686767578 530.6831665039062 222.6684112548828 C 529.737060546875 226.7116241455078 523.2460327148438 228.6836242675781 515.0281982421875 231.1802673339844 C 506.0491027832031 233.908203125 494.8743286132812 237.3032073974609 485.9429016113281 244.8736267089844 C 483.6096801757812 246.8512725830078 481.5151672363281 249.0500640869141 479.7174682617188 251.4090576171875 C 477.7648315429688 253.9713439941406 476.0958251953125 256.8092651367188 474.7566833496094 259.8441162109375 C 473.3216857910156 263.0964050292969 472.2198791503906 266.6776428222656 471.4821166992188 270.4884033203125 C 470.6987609863281 274.534423828125 470.3015441894531 278.9630432128906 470.3015441894531 283.6512756347656 C 470.3015441894531 301.0662841796875 477.7477416992188 329.3024291992188 485.6311645507812 359.1964721679688 C 491.7288818359375 382.3190612792969 498.0341796875 406.228759765625 501.4637451171875 427.1351928710938 C 503.3160400390625 438.4261169433594 504.155517578125 447.7337036132812 504.0302429199219 455.5897827148438 C 503.9623107910156 459.85205078125 503.5975952148438 463.7089233398438 502.9461669921875 467.0531921386719 C 502.2638854980469 470.5562744140625 501.2449035644531 473.6121215820312 499.9175415039062 476.1359252929688 C 497.7452392578125 480.2659912109375 494.7465209960938 483.8866882324219 491.0047607421875 486.8973999023438 C 487.4099731445312 489.7897033691406 483.020751953125 492.206787109375 477.9588928222656 494.0814208984375 C 473.1168823242188 495.8746337890625 467.5137329101562 497.225341796875 461.30517578125 498.0959777832031 C 455.4093322753906 498.9227600097656 448.7848205566406 499.3419799804688 441.6156616210938 499.3419799804688 Z" stroke="none"/><path d="M 190.657958984375 1 C 177.8016052246094 1 164.9533081054688 2.53955078125 152.4700927734375 5.575927734375 C 140.3023071289062 8.53558349609375 128.3329467773438 12.9521484375 116.8944702148438 18.70294189453125 C 105.6598815917969 24.35125732421875 94.82318115234375 31.34304809570312 84.68539428710938 39.484130859375 C 74.6402587890625 47.55078125 65.19354248046875 56.81570434570312 56.60760498046875 67.02142333984375 C 48.01904296875 77.2303466796875 40.22125244140625 88.46456909179688 33.43072509765625 100.4120483398438 C 26.5736083984375 112.4769287109375 20.6837158203125 125.3753356933594 15.92498779296875 138.7491149902344 C 11.077392578125 152.3723449707031 7.354248046875 166.6292724609375 4.85894775390625 181.1239013671875 C 2.29833984375 195.9982604980469 0.99993896484375 211.3079223632812 0.99993896484375 226.6276245117188 C 0.99993896484375 241.9473571777344 2.29833984375 257.2569885253906 4.85894775390625 272.13134765625 C 7.354248046875 286.6259765625 11.077392578125 300.8829345703125 15.92498779296875 314.5061340332031 C 20.6837158203125 327.8799133300781 26.5736083984375 340.7783508300781 33.43072509765625 352.8432006835938 C 40.22125244140625 364.7907104492188 48.01904296875 376.02490234375 56.60760498046875 386.2338256835938 C 65.19354248046875 396.4395751953125 74.6402587890625 405.7044677734375 84.68539428710938 413.7711181640625 C 94.82318115234375 421.9122009277344 105.6598815917969 428.9039916992188 116.8944702148438 434.5523376464844 C 128.3329467773438 440.3031311035156 140.3023071289062 444.7196960449219 152.4700927734375 447.6793518066406 C 164.9533081054688 450.7156982421875 177.8016052246094 452.2552795410156 190.657958984375 452.2552795410156 C 200.9140930175781 452.2552795410156 214.7249450683594 454.1484985351562 234.1216125488281 458.2133483886719 C 251.3739624023438 461.828857421875 270.8961791992188 466.7094116210938 291.5646667480469 471.8764953613281 C 317.351318359375 478.3231201171875 344.015869140625 484.9891967773438 369.9066772460938 490.1409301757812 C 399.33203125 495.995849609375 422.7882385253906 498.8419799804688 441.6157531738281 498.8419799804688 C 448.7617492675781 498.8419799804688 455.3628845214844 498.4244079589844 461.2357482910156 497.600830078125 C 467.4088134765625 496.7351989746094 472.9768981933594 495.3933410644531 477.7852478027344 493.612548828125 C 482.79638671875 491.7567138671875 487.1386108398438 489.3663330078125 490.6912536621094 486.5078430175781 C 494.3794555664062 483.540283203125 497.3347473144531 479.9723510742188 499.4749755859375 475.9031372070312 C 500.7796630859375 473.4225463867188 501.782470703125 470.412841796875 502.4553833007812 466.9576416015625 C 503.1011657714844 463.6421203613281 503.4628295898438 459.8147583007812 503.5303344726562 455.581787109375 C 503.6550903320312 447.755859375 502.8177490234375 438.4773559570312 500.9703979492188 427.2161254882812 C 497.5446166992188 406.333251953125 491.2423706054688 382.4351806640625 485.1476745605469 359.323974609375 C 477.2557373046875 329.397705078125 469.801513671875 301.1310424804688 469.801513671875 283.6512756347656 C 469.801513671875 244.3980712890625 496.9307556152344 236.1559143066406 514.8827514648438 230.701904296875 C 522.946533203125 228.2520446777344 529.3157958984375 226.3169860839844 530.1962280273438 222.5544738769531 C 530.5794067382812 220.9170532226562 529.9659423828125 218.8690490722656 528.32080078125 216.2934875488281 C 526.4636840820312 213.3860473632812 523.3302612304688 209.8750610351562 518.7415161132812 205.5599060058594 C 510.71923828125 198.0158386230469 489.3134765625 181.6718444824219 460.0127563476562 160.7186279296875 C 428.8865966796875 138.4599914550781 393.0214538574219 113.9726257324219 359.0240478515625 91.767333984375 C 319.243408203125 65.78475952148438 283.5486755371094 43.9324951171875 255.7986755371094 28.57269287109375 C 240.006591796875 19.831787109375 226.5733947753906 13.06610107421875 215.8720397949219 8.4637451171875 C 204.3563842773438 3.5111083984375 195.8731689453125 1 190.657958984375 1 M 190.657958984375 0 C 235.303955078125 0 486.8567504882812 174.203125 519.4265747070312 204.8314208984375 C 563.4861450195312 246.2643432617188 470.801513671875 211.55712890625 470.801513671875 283.6512756347656 C 470.801513671875 327.7085571289062 518.6957397460938 441.5068359375 500.3600463867188 476.3686218261719 C 491.3206176757812 493.5552673339844 469.7077026367188 499.8419494628906 441.61572265625 499.8419494628906 C 365.1271362304688 499.8419494628906 240.5624389648438 453.2552795410156 190.657958984375 453.2552795410156 C 85.3604736328125 453.2552795410156 -6.103515625e-05 351.7906494140625 -6.103515625e-05 226.6276245117188 C -6.103515625e-05 101.4646301269531 85.3604736328125 0 190.657958984375 0 Z" stroke="none" fill="#fff"/></g></g></svg>