<svg xmlns="http://www.w3.org/2000/svg" width="763" height="745" viewBox="0 0 762.376 744.139"><g fill="#113f67"><path d="M28.767 577.52c-.328-6.26-.37-13.05-.128-20.177.23-6.768.727-14.057 1.475-21.664 1.373-13.965 3.58-29.186 6.75-46.53 5.853-32.03 13.862-65.115 21.607-97.1l16.228-71.178c2.23-11.426 3.79-21.1 4.774-29.572 1.097-9.445 1.462-17.242 1.116-23.838-.826-15.752.6-31.613 4.237-47.14 3.545-15.137 9.234-30.142 16.907-44.6 7.536-14.2 17.062-28.013 28.312-41.06 11.147-12.925 24.083-25.21 38.45-36.5s30.288-21.716 47.314-30.95c17.19-9.323 35.662-17.525 54.9-24.378 19.595-6.98 40.19-12.632 61.208-16.798 21.568-4.275 43.853-7.037 66.236-8.2s44.834-.755 66.73 1.242c21.34 1.946 42.41 5.414 62.628 10.308 19.85 4.804 39.076 11.03 57.148 18.506 17.897 7.403 34.817 16.095 50.3 25.834s29.62 20.602 42.055 32.29c12.552 11.798 23.47 24.54 32.45 37.874 9.142 13.576 16.368 27.904 21.476 42.587 5.24 15.063 8.316 30.688 9.142 46.44.338 6.457-2.795 17.096-9.312 31.624-6.03 13.443-15.04 30.388-26.78 50.364-10.775 18.336-23.942 39.388-39.135 62.57-13.92 21.238-29.52 44.244-46.375 68.378-30.187 43.228-63.58 88.912-94.03 128.636-28.678 37.414-51.15 64.836-61.655 75.235-6.206 6.143-11.288 10.348-15.538 12.855-3.93 2.317-7.156 3.184-9.865 2.648-5.817-1.15-9.053-8.8-13.15-18.488-4.547-10.752-10.206-24.133-21.79-34.447-3.022-2.7-6.35-5.073-9.89-7.08-3.843-2.18-8.067-3.994-12.556-5.392-4.81-1.498-10.08-2.566-15.657-3.174-5.927-.646-12.386-.792-19.198-.435-25.337 1.328-65.988 12.574-109.025 24.48-33.31 9.215-67.755 18.744-98.014 24.532-16.353 3.128-29.88 4.866-41.354 5.314-6.233.243-11.895.092-16.828-.45-5.177-.57-9.722-1.587-13.51-3.024-6.187-2.35-11.68-5.75-16.324-10.107-4.454-4.178-8.264-9.363-11.324-15.41-2.924-5.78-5.252-12.523-6.92-20.04-1.582-7.14-2.617-15.198-3.076-23.955z"/><path d="M739.572 232.915c-.823-15.705-3.9-31.283-9.115-46.302-5.094-14.642-12.3-28.932-21.418-42.472-8.958-13.303-19.85-26.017-32.376-37.79-12.413-11.667-26.537-22.512-41.98-32.232-15.45-9.724-32.343-18.403-50.214-25.795-18.048-7.465-37.25-13.684-57.074-18.482-20.194-4.888-41.24-8.352-62.556-10.296-21.873-1.995-44.3-2.412-66.66-1.24s-44.62 3.93-66.165 8.2c-20.995 4.16-41.565 9.806-61.137 16.778-19.214 6.844-37.66 15.036-54.83 24.347-17 9.22-32.896 19.617-47.243 30.903-14.34 11.28-27.254 23.543-38.38 36.444-11.226 13.017-20.73 26.8-28.25 40.967-7.653 14.42-13.326 29.384-16.86 44.478-3.627 15.483-5.048 31.296-4.225 47 .347 6.624-.02 14.448-1.12 23.92-.985 8.486-2.55 18.17-4.78 29.6-4.164 21.346-10.026 45.562-16.232 71.2-7.744 31.988-15.75 65.065-21.6 97.082-3.167 17.33-5.373 32.537-6.744 46.49-.747 7.597-1.243 14.875-1.473 21.632-.243 7.115-.2 13.89.128 20.134.457 8.73 1.49 16.76 3.065 23.873 1.658 7.478 3.97 14.18 6.877 19.924 3.033 5.995 6.808 11.134 11.22 15.272 4.597 4.313 10.034 7.678 16.16 10.004 3.748 1.423 8.252 2.43 13.386 2.995 4.908.54 10.545.7 16.754.448 11.45-.447 24.952-2.182 41.28-5.305 30.24-5.784 64.674-15.3 97.975-24.523 43.065-11.914 83.74-23.166 109.132-24.497 6.84-.358 13.325-.21 19.278.437 5.6.61 10.9 1.686 15.752 3.193 4.523 1.408 8.78 3.237 12.654 5.434a58.25 58.25 0 0 1 9.974 7.142c11.67 10.39 17.352 23.827 21.92 34.625 2.1 4.966 3.914 9.255 5.967 12.497 2.146 3.4 4.313 5.2 6.82 5.695 2.583.51 5.696-.336 9.514-2.588 4.214-2.486 9.264-6.666 15.44-12.78 10.49-10.384 32.946-37.787 61.6-75.184 30.445-39.72 63.834-85.397 94.018-128.618l46.366-68.365c15.19-23.176 28.35-44.22 39.122-62.55 11.73-19.96 20.73-36.89 26.755-50.316 6.485-14.454 9.603-25.016 9.27-31.393m1-.052c2.858 54.53-234.888 375.07-277.435 417.19-57.556 56.977-12.913-58.875-117.968-53.37-64.2 3.365-226.96 70.55-278.935 50.82-25.623-9.728-36.167-35.645-37.965-69.956-4.896-93.42 55.017-249.117 51.822-310.07C73.35 138.87 215.74 26.866 398.126 17.307s335.705 86.95 342.445 215.556z" fill="#707070"/></g><g fill="#226597"><path d="M159.333 30.153c5.975-.313 12.454-.348 19.26-.105 6.46.23 13.418.722 20.68 1.457 13.332 1.35 27.863 3.514 44.424 6.616 30.583 5.728 62.174 13.556 92.725 21.126l67.967 15.866c10.91 2.18 20.148 3.71 28.238 4.677 9.02 1.077 16.465 1.44 22.763 1.1 15.034-.788 30.174.615 45 4.17 14.45 3.465 28.78 9.016 42.586 16.498 13.56 7.348 26.756 16.633 39.22 27.595 12.35 10.862 24.088 23.465 34.9 37.46s20.76 29.502 29.59 46.083c8.917 16.742 16.765 34.73 23.326 53.46 6.683 19.08 12.098 39.13 16.096 59.594 4.102 20.998 6.76 42.692 7.903 64.48s.765 43.64-1.12 64.952c-1.837 20.77-5.127 41.275-9.78 60.95-4.567 19.315-10.492 38.024-17.6 55.606-7.05 17.413-15.33 33.873-24.612 48.923s-19.637 28.808-30.783 40.9c-11.25 12.205-23.403 22.818-36.12 31.544-12.95 8.884-26.618 15.902-40.628 20.86-14.372 5.085-29.282 8.063-44.316 8.85-6.158.323-16.314-2.737-30.184-9.093-12.84-5.883-29.023-14.67-48.104-26.115-17.515-10.506-37.624-23.342-59.77-38.153-20.29-13.57-42.266-28.778-65.32-45.206-41.297-29.426-84.94-61.975-122.894-91.652-35.745-27.95-61.945-49.85-71.882-60.086-5.888-6.064-9.914-11.027-12.308-15.173-2.212-3.83-3.03-6.974-2.505-9.6 1.122-5.624 8.4-8.756 17.616-12.722 10.262-4.416 23.033-9.913 32.872-21.183 2.566-2.94 4.838-6.176 6.752-9.62 2.078-3.74 3.806-7.85 5.136-12.218 1.426-4.682 2.44-9.81 3.014-15.238.61-5.768.744-12.055.396-18.687-1.293-24.664-12.068-64.243-23.477-106.146-8.83-32.432-17.96-65.97-23.516-95.428-3.002-15.92-4.675-29.088-5.113-40.258-.238-6.068-.1-11.578.414-16.38.538-5.038 1.505-9.46 2.873-13.145 2.236-6.018 5.476-11.36 9.63-15.875 3.983-4.33 8.927-8.03 14.694-11.002 5.513-2.84 11.945-5.098 19.12-6.712 6.812-1.533 14.503-2.532 22.86-2.97z"/><path d="M489.005 722.326c14.986-.785 29.85-3.754 44.176-8.823 13.97-4.942 27.6-11.94 40.512-20.8 12.688-8.705 24.812-19.293 36.036-31.47 11.125-12.07 21.462-25.805 30.725-40.825 9.267-15.027 17.535-31.46 24.574-48.848 7.11-17.56 13.026-36.243 17.587-55.534 4.646-19.65 7.933-40.133 9.767-60.88 1.883-21.288 2.26-43.118 1.118-64.882s-3.797-43.435-7.894-64.4c-3.993-20.44-9.402-40.466-16.077-59.524-6.553-18.708-14.4-36.672-23.296-53.39-8.818-16.556-18.76-32.037-29.546-46.012-10.782-13.97-22.5-26.55-34.824-37.39-12.436-10.938-25.6-20.2-39.128-27.53-13.768-7.46-28.056-12.996-42.464-16.45-14.778-3.544-29.87-4.942-44.856-4.157-6.327.332-13.8-.032-22.848-1.113-8.104-.968-17.353-2.5-28.277-4.683-20.384-4.074-43.508-9.804-67.99-15.87-30.544-7.57-62.128-15.395-92.697-21.12-16.546-3.1-31.064-5.26-44.382-6.6-7.252-.734-14.2-1.224-20.648-1.455-6.8-.243-13.255-.208-19.215.104-8.33.437-15.993 1.432-22.777 2.958-7.132 1.605-13.525 3.85-19 6.67-5.715 2.944-10.612 6.6-14.555 10.897-4.1 4.468-7.316 9.754-9.53 15.71-1.354 3.646-2.312 8.027-2.845 13.024-.5 4.777-.648 10.263-.41 16.306.438 11.144 2.108 24.29 5.105 40.185 5.552 29.44 14.68 62.966 23.507 95.39 11.416 41.93 22.198 81.534 23.494 106.252.35 6.657.215 12.97-.4 18.765-.578 5.46-1.6 10.62-3.033 15.33-1.34 4.402-3.082 8.546-5.177 12.315-1.93 3.475-4.223 6.74-6.812 9.707-9.913 11.355-22.742 16.877-33.05 21.313-4.724 2.033-8.804 3.79-11.89 5.775-3.224 2.074-4.95 4.167-5.433 6.587-.5 2.512.3 5.542 2.448 9.262 2.373 4.1 6.375 9.04 12.233 15.075 9.922 10.22 36.104 32.103 71.83 60.04 37.947 29.673 81.585 62.217 122.876 91.64l65.31 45.198c22.14 14.807 42.242 27.64 59.75 38.14 19.065 11.436 35.233 20.213 48.055 26.09 13.796 6.322 23.873 9.367 29.95 9.048m.052 1c-52.053 2.728-358.3-229-398.54-270.456-54.45-56.08 56.192-12.51 50.833-114.774C138.075 275.6 73.775 117.11 92.56 66.54c9.262-24.93 33.993-35.17 66.746-36.885C248.485 24.98 397.18 83.45 455.363 80.4 578.13 73.967 685.195 212.674 694.5 390.213S611.824 716.89 489.057 723.325z" fill="#707070"/></g><g fill="#fff"><path d="M148.522 141.356c18.858.33 42.293 3.588 71.644 9.963 25.81 5.605 52.36 12.737 78.035 19.635l57.177 14.66c19.288 4.395 33.03 6.525 43.25 6.703a162.26 162.26 0 0 1 38.22 5.258c12.15 3.18 24.077 7.82 35.447 13.787 11.165 5.86 21.908 13.06 31.93 21.398 9.928 8.262 19.234 17.713 27.66 28.092s16.046 21.775 22.64 33.866c6.66 12.208 12.335 25.234 16.87 38.717 4.618 13.733 8.1 28.08 10.345 42.645 2.305 14.945 3.338 30.303 3.07 45.65s-1.836 30.66-4.66 45.514c-2.753 14.477-6.732 28.694-11.827 42.258-5.002 13.316-11.128 26.136-18.2 38.105-7.013 11.853-15.024 22.975-23.8 33.055s-18.415 19.2-28.625 27.1c-10.306 7.984-21.293 14.805-32.656 20.27-11.57 5.567-23.652 9.786-35.906 12.54a162.26 162.26 0 0 1-38.38 3.921c-5.283-.092-13.787-2.766-25.277-7.947-10.634-4.795-23.962-11.802-39.614-20.825-27.488-15.848-62.807-38.326-102.138-65.006-33.6-22.8-69.05-47.913-99.787-70.715-28.948-21.474-50.084-38.205-57.988-45.903-8.627-8.4-12.215-14.017-11.292-17.672 1.017-4.026 7.54-5.885 15.8-8.237 9.025-2.57 20.258-5.77 29.32-13.184 2.367-1.937 4.5-4.1 6.34-6.426 1.997-2.528 3.715-5.336 5.107-8.347 1.492-3.227 2.656-6.788 3.46-10.586.854-4.032 1.328-8.453 1.4-13.14.304-17.412-6.648-45.774-14.01-75.8-5.693-23.225-11.58-47.242-14.645-68.205-1.655-11.322-2.332-20.642-2.07-28.495.142-4.26.574-8.1 1.284-11.443.743-3.49 1.815-6.528 3.187-9.028 2.244-4.092 5.306-7.66 9.1-10.604 3.645-2.83 8.075-5.17 13.17-6.955 4.873-1.708 10.498-2.96 16.72-3.723 5.91-.724 12.54-1.027 19.708-.902z"/><path d="M390.744 644.002c12.854.224 25.728-1.09 38.262-3.91 12.218-2.747 24.262-6.954 35.8-12.504 11.33-5.45 22.29-12.253 32.567-20.216 10.184-7.9 19.79-16.99 28.554-27.043s16.758-21.154 23.756-32.98c7.067-11.943 13.18-24.737 18.172-38.026 5.085-13.537 9.056-27.726 11.804-42.175 2.82-14.827 4.385-30.112 4.653-45.43s-.764-30.647-3.064-45.564c-2.242-14.536-5.716-28.856-10.325-42.56-4.525-13.455-10.188-26.454-16.834-38.637-6.58-12.064-14.182-23.433-22.59-33.8s-17.7-19.782-27.593-28.023c-9.994-8.317-20.707-15.497-31.842-21.34-11.336-5.95-23.227-10.574-35.34-13.746-12.428-3.254-25.248-5.017-38.102-5.242-10.255-.18-24.03-2.313-43.353-6.716-17.187-3.916-36.62-9.137-57.196-14.664-25.67-6.896-52.214-14.026-78.01-19.63-29.32-6.368-52.722-9.623-71.546-9.95-7.145-.125-13.752.178-19.64.9-6.187.758-11.778 2.002-16.617 3.7-5.043 1.768-9.426 4.082-13.028 6.878-3.74 2.903-6.757 6.42-8.967 10.45-1.348 2.457-2.403 5.45-3.136 8.892-.704 3.304-1.132 7.124-1.273 11.355-.26 7.823.414 17.114 2.065 28.406 3.06 20.94 8.945 44.944 14.635 68.158 7.368 30.06 14.328 58.452 14.023 75.93-.685 39.247-27.954 47.015-45.998 52.155-8.105 2.31-14.507 4.132-15.453 7.88-.412 1.63.166 3.69 1.766 6.293 1.806 2.94 4.878 6.505 9.39 10.9 7.89 7.683 29.007 24.398 57.937 45.86 30.733 22.798 66.165 47.908 99.77 70.703 39.32 26.673 74.63 49.145 102.107 64.987 15.637 9.015 28.95 16.014 39.57 20.803 11.427 5.153 19.866 7.812 25.08 7.903m-.017 1c-44.64-.78-293.114-179.346-325.144-210.538-43.33-42.196 48.735-5.876 49.993-77.96.77-44.05-45.132-158.667-26.19-193.204 9.338-17.026 31.057-22.935 59.145-22.445 76.477 1.335 200.2 50.088 250.107 50.96 105.28 1.838 188.858 104.777 186.674 229.92S496.01 646.84 390.727 645.002z"/></g></svg>