<svg xmlns="http://www.w3.org/2000/svg" width="104" height="130" viewBox="0 0 104 130"><path d="M108,47.11a8.516,8.516,0,0,0-.39-1.755V44.77a6.955,6.955,0,0,0-1.235-1.82h0l-39-39h0a6.955,6.955,0,0,0-1.82-1.235H64.97L62.89,2H23.5A19.5,19.5,0,0,0,4,21.5v91A19.5,19.5,0,0,0,23.5,132h65A19.5,19.5,0,0,0,108,112.5V47.11ZM69,24.165,85.835,41H69ZM95,112.5a6.5,6.5,0,0,1-6.5,6.5h-65a6.5,6.5,0,0,1-6.5-6.5v-91A6.5,6.5,0,0,1,23.5,15H56V47.5A6.5,6.5,0,0,0,62.5,54H95Z" transform="translate(-4 -2)" fill="#113f67"/></svg>