<svg xmlns="http://www.w3.org/2000/svg" width="730" height="702" viewBox="0 0 729.093 701.279"><g fill="#464646" opacity=".076"><path d="M26.926 540.763c-.307-5.856-.342-12.205-.104-18.87.226-6.33.705-13.145 1.424-20.257 1.32-13.057 3.437-27.285 6.47-43.497 5.603-29.94 13.263-60.86 20.67-90.763l15.53-66.56c2.135-10.688 3.632-19.738 4.578-27.667 1.054-8.84 1.41-16.14 1.085-22.32l-.015-.278c-1.173-22.375 2.587-44.685 11.175-66.31 8.315-20.938 21.052-41.007 37.857-59.65 13.435-14.903 29.388-28.778 47.415-41.24 18.094-12.507 38.238-23.562 59.872-32.857 22.02-9.46 45.575-17.092 70.01-22.683 25.172-5.76 51.357-9.366 77.83-10.722 21.438-1.098 42.942-.707 63.916 1.162 20.44 1.822 40.62 5.068 59.986 9.65 19.01 4.497 37.427 10.325 54.736 17.322 17.142 6.93 33.347 15.065 48.166 24.18s28.367 19.283 40.278 30.223c12.022 11.042 22.477 22.97 31.076 35.448 8.755 12.705 15.674 26.114 20.566 39.856 5.018 14.096 7.963 28.718 8.754 43.46l.001.02c.317 6.044-2.69 16.002-8.933 29.598-5.78 12.586-14.413 28.448-25.657 47.146-10.322 17.164-22.934 36.868-37.485 58.567-13.33 19.88-28.275 41.41-44.415 63.998-28.91 40.46-60.892 83.214-90.05 120.4-27.463 35.014-48.983 60.677-59.042 70.41-5.96 5.766-10.838 9.707-14.914 12.05-3.765 2.164-6.856 2.965-9.45 2.448-5.534-1.103-8.623-8.243-12.535-17.282-4.357-10.067-9.78-22.596-20.88-32.255a55.33 55.33 0 0 0-9.475-6.631c-3.682-2.04-7.73-3.74-12.03-5.048-4.61-1.403-9.655-2.402-15-2.97-5.677-.605-11.864-.74-18.4-.407-24.27 1.243-63.206 11.77-104.43 22.915-31.905 8.626-64.897 17.545-93.88 22.963-15.662 2.928-28.62 4.555-39.61 4.974-5.97.228-11.393.086-16.117-.422-4.957-.532-9.3-1.485-12.937-2.83-5.937-2.203-11.206-5.393-15.66-9.483-4.27-3.92-7.92-8.787-10.85-14.464-2.8-5.425-5.025-11.755-6.616-18.815-1.5-6.702-2.495-14.27-2.926-22.493z"/><path d="M707.702 218.416c-.788-14.693-3.724-29.267-8.726-43.318-4.877-13.7-11.777-27.07-20.507-39.74-8.578-12.448-19.008-24.346-31.002-35.363-11.888-10.92-25.414-21.07-40.202-30.166-14.795-9.1-30.976-17.224-48.092-24.143-17.285-6.987-35.677-12.808-54.663-17.3-19.34-4.575-39.5-7.818-59.915-9.637-20.95-1.867-42.43-2.258-63.846-1.16-26.443 1.354-52.6 4.958-77.743 10.7-24.406 5.584-47.932 13.206-69.925 22.655-21.604 9.282-41.72 20.32-59.785 32.81-17.996 12.44-33.92 26.288-47.328 41.163-16.766 18.598-29.47 38.616-37.764 59.5-8.56 21.56-12.3 43.798-11.14 66.1l.015.278c.325 6.208-.03 13.538-1.088 22.407-.947 7.943-2.446 17.006-4.584 27.707-3.988 19.967-9.597 42.6-15.535 66.583-7.405 29.895-15.063 60.808-20.663 90.733-3.03 16.197-5.146 30.412-6.465 43.455-1.47 14.545-1.914 27.683-1.318 39.05.43 8.195 1.4 15.735 2.914 22.41 1.58 7.018 3.793 13.308 6.573 18.695 2.902 5.624 6.517 10.444 10.743 14.325 4.406 4.046 9.62 7.203 15.495 9.383 3.588 1.33 7.9 2.274 12.816 2.802 4.7.505 10.098.646 16.044.42 10.965-.418 23.898-2.042 39.536-4.966 28.963-5.414 61.945-14.33 93.84-22.954 41.25-11.152 80.21-21.686 104.534-22.93 6.55-.336 12.765-.198 18.468.41 5.375.572 10.453 1.578 15.09 3 4.334 1.32 8.414 3.03 12.126 5.09a55.84 55.84 0 0 1 9.561 6.691c11.187 9.733 16.634 22.32 21.01 32.434 2.005 4.634 3.737 8.636 5.694 11.664 2.042 3.16 4.1 4.852 6.48 5.327 2.47.492 5.447-.3 9.102-2.39 4.04-2.322 8.886-6.24 14.816-11.976 10.044-9.717 31.547-35.36 58.996-70.358 29.154-37.17 61.13-79.92 90.037-120.372l44.407-63.986c14.547-21.692 27.154-41.39 37.472-58.546 11.235-18.682 19.86-34.528 25.63-47.097 6.2-13.522 9.2-23.4 8.888-29.363l-.001-.018m1-.034c2.678 51.097-224.988 351.072-265.736 390.492-55.128 53.333-12.37-55.11-112.993-49.957-61.492 3.15-217.39 66.04-267.17 47.57-24.598-9.127-34.687-33.472-36.376-65.697-4.58-87.42 52.644-232.86 49.653-289.935l-.015-.278C69.76 130.267 206.09 25.533 380.7 16.6 555.394 7.643 702.245 97.98 708.7 218.362z" fill="#707070"/></g><g fill="#a7a7a7" opacity=".076"><path d="M154.23 28.235c11.022-.578 23.765-.15 37.874 1.267 12.644 1.27 26.426 3.3 42.133 6.234 29.008 5.4 58.974 12.78 87.953 19.918l64.45 14.954c10.347 2.056 19.106 3.498 26.778 4.408 8.554 1.015 15.616 1.358 21.59 1.046 14.253-.743 28.607.58 42.66 3.93 13.7 3.266 27.285 8.497 40.374 15.547 12.857 6.925 25.367 15.675 37.184 26.006 11.708 10.236 22.838 22.114 33.08 35.303s19.683 27.804 28.056 43.43c8.454 15.78 15.895 32.73 22.116 50.384 6.336 17.982 11.47 36.88 15.26 56.164 3.89 19.8 6.4 40.236 7.493 60.77s.725 41.122-1.06 61.205c-1.74 19.57-4.86 38.894-9.27 57.434-4.33 18.2-9.945 35.832-16.693 52.4-6.682 16.41-14.532 31.92-23.33 46.105s-18.613 27.15-29.18 38.547c-10.663 11.503-22.182 21.506-34.237 29.73-12.274 8.374-25.23 15-38.51 19.665-13.622 4.795-27.754 7.605-42.003 8.352l-.047.002c-5.836.304-15.46-2.58-28.6-8.568-12.173-5.545-27.518-13.826-45.6-24.613-16.607-9.902-35.675-22-56.673-35.96-19.238-12.79-40.076-27.124-61.937-42.608-39.157-27.734-80.54-58.413-116.528-86.384-33.892-26.344-58.734-46.984-68.156-56.63-5.577-5.71-9.39-10.382-11.66-14.286-2.094-3.602-2.872-6.557-2.38-9.034 1.053-5.293 7.954-8.244 16.7-11.982 9.733-4.164 21.846-9.345 31.178-19.972a52.87 52.87 0 0 0 6.406-9.073c1.97-3.526 3.61-7.402 4.872-11.522 1.352-4.415 2.314-9.25 2.86-14.368.58-5.44.706-11.366.376-17.618-1.226-23.25-11.444-60.556-22.262-100.053-8.372-30.568-17.03-62.176-22.297-89.94-2.846-15.004-4.432-27.414-4.848-37.94-.226-5.717-.094-10.9.392-15.433.5-4.746 1.426-8.91 2.723-12.382 2.117-5.665 5.185-10.693 9.12-14.945 3.772-4.077 8.453-7.563 13.915-10.362 5.22-2.676 11.313-4.805 18.107-6.327 6.452-1.446 13.737-2.39 21.652-2.804z"/><path d="M466.923 680.537c14.202-.744 28.287-3.545 41.863-8.324 13.238-4.66 26.155-11.256 38.393-19.606 12.024-8.204 23.515-18.182 34.152-29.658 10.544-11.374 20.34-24.318 29.12-38.47 8.784-14.16 16.62-29.646 23.292-46.03 6.738-16.546 12.346-34.152 16.67-52.328 4.404-18.517 7.52-37.816 9.258-57.363 1.784-20.06 2.14-40.627 1.06-61.134s-3.6-40.933-7.484-60.7c-3.786-19.262-8.914-38.135-15.242-56.095-6.212-17.63-13.643-34.558-22.085-50.314-8.36-15.602-17.784-30.2-28-43.36-10.222-13.163-21.33-25.018-33.013-35.233-11.79-10.307-24.268-19.035-37.092-25.943-13.052-7.03-26.595-12.245-40.253-15.5-14.008-3.34-28.314-4.657-42.52-3.917-6.002.313-13.09-.03-21.674-1.05-7.685-.912-16.457-2.356-26.817-4.414-19.33-3.84-41.257-9.24-64.47-14.96-28.972-7.136-58.93-14.515-87.925-19.912-15.693-2.92-29.46-4.958-42.092-6.228-14.084-1.416-26.8-1.84-37.798-1.265-7.887.413-15.144 1.353-21.57 2.793-6.753 1.513-12.805 3.627-17.988 6.284-5.41 2.772-10.044 6.223-13.776 10.257-3.89 4.204-6.923 9.177-9.017 14.78-1.282 3.43-2.19 7.556-2.694 12.26-.483 4.5-.614 9.667-.39 15.36.415 10.5 1.998 22.887 4.84 37.866 5.264 27.745 13.918 59.344 22.288 89.902 10.825 39.523 21.05 76.855 22.28 100.16.33 6.278.204 12.232-.378 17.697-.548 5.15-1.517 10.017-2.88 14.462-1.272 4.153-2.925 8.063-4.914 11.62a53.37 53.37 0 0 1-6.466 9.159c-9.407 10.712-21.578 15.918-31.357 20.102-4.48 1.917-8.35 3.572-11.274 5.443-3.044 1.947-4.67 3.9-5.123 6.177-.468 2.352.29 5.193 2.32 8.685 2.248 3.868 6.038 8.51 11.586 14.188 9.407 9.63 34.23 30.254 68.105 56.585 35.98 27.967 77.358 58.64 116.5 86.37l61.925 42.6c20.992 13.955 40.053 26.05 56.653 35.947 18.076 10.778 33.405 19.05 45.56 24.587 13.075 5.956 22.622 8.824 28.376 8.524l.047-.002m.052 1l-.047.002c-49.357 2.57-339.733-215.84-377.9-254.913-51.63-52.856 53.282-11.792 48.2-108.178-3.106-58.902-64.075-208.285-46.262-255.95 8.776-23.482 32.2-33.137 63.235-34.763 84.553-4.43 225.592 50.703 280.777 47.828C551.388 69.5 652.907 200.235 661.73 367.57c8.82 167.305-78.378 307.866-194.755 313.965z" fill="#707070"/></g></svg>