<svg xmlns="http://www.w3.org/2000/svg" width="1152" height="905" viewBox="0 0 1151.733 904.852"><g fill="#113f67"><path d="M310.823 677.33c-.385-7.35-.442-15.32-.17-23.694.258-7.948.822-16.51 1.675-25.445 1.566-16.404 4.093-34.285 7.724-54.665 6.706-37.634 15.894-76.51 24.78-114.11l18.585-83.502c2.552-13.403 4.34-24.75 5.467-34.687 1.256-11.076 1.674-20.218 1.278-27.95a201.16 201.16 0 0 1 .522-27.967c.8-9.128 2.268-18.336 4.333-27.366 4.062-17.766 10.58-35.377 19.372-52.345 8.634-16.664 19.548-32.876 32.437-48.185 12.77-15.168 27.6-29.582 44.048-42.843s34.697-25.482 54.2-36.316c19.693-10.94 40.85-20.563 62.888-28.604 22.446-8.2 46.035-14.82 70.112-19.71 24.706-5.016 50.232-8.257 75.87-9.633 30.927-1.66 61.824-.605 91.83 3.135 29.142 3.633 57.568 9.81 84.5 18.362 26.446 8.4 51.466 19.096 74.365 31.8 22.796 12.637 43.473 27.244 61.456 43.416 23.893 21.486 42.83 45.488 56.28 71.338 13.902 26.716 21.724 55.02 23.25 84.122l.013.25c.388 7.6-3.203 20.088-10.674 37.145-6.91 15.774-17.23 35.657-30.676 59.095-12.34 21.512-27.422 46.21-44.824 73.4-15.942 24.917-33.813 51.908-53.115 80.22-34.575 50.715-72.823 104.312-107.698 150.917-32.848 43.896-58.59 76.07-70.623 88.273-7.09 7.2-12.902 12.118-17.767 15.066-4.508 2.732-8.215 3.763-11.332 3.152-3.07-.602-5.697-2.812-8.265-6.957-2.388-3.855-4.48-8.923-6.904-14.792-5.204-12.606-11.682-28.294-24.936-40.38a66.13 66.13 0 0 0-11.313-8.298c-4.397-2.555-9.23-4.682-14.367-6.32-5.506-1.756-11.536-3.008-17.92-3.72-6.785-.757-14.18-.93-21.978-.5-29.012 1.558-75.568 14.75-124.856 28.717-38.153 10.812-77.604 21.99-112.263 28.782-18.732 3.67-34.228 5.7-47.373 6.235-7.142.285-13.63.108-19.283-.53-5.934-.668-11.145-1.863-15.488-3.552-3.576-1.39-6.974-3.104-10.1-5.094a55.4 55.4 0 0 1-8.582-6.743c-5.1-4.893-9.467-10.963-12.975-18.042-3.353-6.764-6.025-14.654-7.942-23.45-1.82-8.35-3.015-17.777-3.55-28.016z"/><path d="M1125.118 272.495c-1.52-29.03-9.325-57.265-23.194-83.917-13.424-25.797-32.323-49.75-56.17-71.197-17.955-16.146-38.6-30.73-61.364-43.35-22.87-12.678-47.86-23.36-74.274-31.75-26.893-8.542-55.29-14.713-84.4-18.342-29.977-3.737-60.844-4.79-91.742-3.132-25.614 1.375-51.116 4.613-75.798 9.624-24.052 4.883-47.617 11.507-70.04 19.69-22.012 8.032-43.147 17.645-62.817 28.572-19.478 10.82-37.7 23.023-54.13 36.27-16.433 13.24-31.23 27.633-43.98 42.776-12.866 15.282-23.758 31.462-32.376 48.093-8.772 16.93-15.275 34.502-19.328 52.227-2.06 9.008-3.514 18.193-4.323 27.298a200.64 200.64 0 0 0-.521 27.897c.397 7.76-.022 16.93-1.28 28.033-1.128 9.95-2.918 21.31-5.473 34.725-4.768 25.04-11.482 53.448-18.6 83.524-8.884 37.59-18.07 76.46-24.773 114.08-3.63 20.366-6.154 38.234-7.718 54.624-.852 8.926-1.415 17.476-1.673 25.414-.272 8.36-.214 16.316.17 23.652.535 10.212 1.726 19.61 3.54 27.936 1.908 8.756 4.567 16.606 7.902 23.334 3.483 7.027 7.814 13.05 12.874 17.903 2.61 2.503 5.47 4.75 8.505 6.682 3.098 1.972 6.466 3.67 10.012 5.05 4.303 1.673 9.47 2.858 15.362 3.52 5.628.634 12.1.8 19.207.526 13.12-.524 28.6-2.56 47.297-6.226 34.64-6.787 74.08-17.964 112.223-28.772C597.56 713.28 644.14 700.08 673.2 698.52c7.826-.42 15.248-.248 22.06.513 6.418.716 12.48 1.975 18.017 3.74 5.17 1.65 10.038 3.79 14.467 6.364a66.63 66.63 0 0 1 11.399 8.361c13.337 12.163 19.838 27.908 25.062 40.56 2.415 5.85 4.5 10.9 6.867 14.72 2.5 4.018 5.01 6.156 7.936 6.73 2.99.586 6.58-.425 10.977-3.09 4.828-2.926 10.608-7.83 17.67-14.99 12.02-12.187 37.744-44.343 70.58-88.222 34.87-46.6 73.114-100.2 107.685-150.9l53.107-80.21c17.397-27.192 32.474-51.884 44.812-73.4 13.437-23.423 23.75-43.29 30.652-59.047 7.44-16.985 11.017-29.407 10.632-36.92l-.013-.25m1-.052l.013.25c3.273 63.972-269.024 440.026-317.754 489.44-65.92 66.844-14.8-69.07-135.112-62.612-73.53 3.947-259.944 82.77-319.47 59.62-29.273-11.384-41.366-41.68-43.468-81.784-5.742-109.566 63-292.48 59.34-364.054-7.72-150.88 155.363-282.28 364.256-293.495C942.684 8.6 1118.216 121.7 1126.116 272.443z" fill="#707070"/></g><g fill="#226597"><path d="M121.84 73.086c6.962-.365 14.513-.406 22.443-.122 7.528.27 15.635.84 24.097 1.697 15.533 1.573 32.463 4.094 51.757 7.707 35.63 6.673 72.43 15.79 108.02 24.6l79.172 18.48c12.708 2.54 23.466 4.322 32.888 5.447 10.502 1.254 19.17 1.677 26.503 1.293a182.57 182.57 0 0 1 26.504.544c8.652.81 17.38 2.263 25.94 4.315 16.84 4.038 33.54 10.507 49.63 19.225 15.803 8.563 31.18 19.38 45.703 32.155 14.4 12.656 28.068 27.34 40.654 43.646s24.19 34.373 34.48 53.7c10.4 19.506 19.533 40.462 27.178 62.285 7.786 22.23 14.096 45.588 18.754 69.428 4.78 24.463 7.877 49.737 9.207 75.12s.89 50.84-1.305 75.667c-2.14 24.196-5.974 48.086-11.394 71.007-5.322 22.503-12.225 44.3-20.52 64.785-8.214 20.288-17.863 39.465-28.68 57s-22.882 33.566-35.87 47.657c-13.11 14.222-27.27 26.59-42.09 36.758-15.1 10.353-31.02 18.53-47.346 24.308-8.298 2.936-16.825 5.292-25.344 7.003a182.53 182.53 0 0 1-26.3 3.312c-7.188.377-19.03-3.19-35.2-10.6-14.958-6.855-33.815-17.09-56.045-30.424-20.404-12.238-43.83-27.19-69.63-44.445-23.635-15.806-49.237-33.523-76.096-52.66-48.108-34.277-98.95-72.193-143.163-106.763-41.642-32.56-72.166-58.073-83.744-69.998-6.863-7.068-11.557-12.855-14.35-17.7-2.587-4.48-3.545-8.16-2.928-11.252.6-3.007 2.704-5.582 6.62-8.1 3.642-2.343 8.418-4.398 13.95-6.778 11.947-5.14 26.815-11.54 38.263-24.653 2.985-3.42 5.628-7.185 7.855-11.193 2.418-4.35 4.428-9.133 5.976-14.216 1.66-5.45 2.84-11.415 3.51-17.735.71-6.715.866-14.034.46-21.754-1.505-28.72-14.057-74.82-27.346-123.627-10.287-37.78-20.923-76.846-27.395-111.165-3.498-18.548-5.447-33.89-5.958-46.906-.278-7.072-.116-13.495.482-19.09.627-5.875 1.755-11.033 3.352-15.332 1.318-3.548 2.944-6.918 4.832-10.016a54.4 54.4 0 0 1 6.402-8.503c4.646-5.05 10.413-9.368 17.14-12.834 6.428-3.31 13.928-5.944 22.29-7.826 7.94-1.786 16.904-2.95 26.644-3.462z"/><path d="M505.892 879.606a182.03 182.03 0 0 0 26.228-3.303 185.61 185.61 0 0 0 25.275-6.984c16.285-5.762 32.175-13.92 47.23-24.25 14.8-10.147 28.923-22.49 42.006-36.684 12.966-14.068 25.015-30.076 35.812-47.58 10.8-17.512 20.437-36.664 28.64-56.926 8.285-20.462 15.18-42.234 20.496-64.712 5.415-22.898 9.245-46.764 11.383-70.936 2.194-24.805 2.633-50.24 1.304-75.597s-4.424-50.6-9.2-75.05c-4.653-23.817-10.956-47.152-18.735-69.36-7.636-21.8-16.77-42.732-27.147-62.216-10.276-19.293-21.86-37.334-34.433-53.62-12.567-16.28-26.223-30.94-40.59-43.576-14.496-12.75-29.842-23.546-45.61-32.09-16.052-8.698-32.708-15.15-49.507-19.178a185.64 185.64 0 0 0-25.869-4.304 182.08 182.08 0 0 0-26.432-.543c-7.36.386-16.057-.038-26.588-1.295-9.435-1.127-20.206-2.9-32.927-5.453-23.74-4.745-50.677-11.42-79.194-18.485-35.583-8.817-72.378-17.934-107.993-24.604-19.28-3.61-36.195-6.13-51.715-7.7-8.45-.856-16.547-1.426-24.064-1.695-7.915-.283-15.45-.242-22.4.122-9.712.51-18.65 1.67-26.56 3.45-8.322 1.873-15.78 4.49-22.172 7.783-6.675 3.438-12.395 7.72-17 12.728-2.377 2.583-4.51 5.418-6.343 8.425-1.872 3.07-3.483 6.412-4.8 9.93-1.582 4.26-2.7 9.377-3.324 15.21-.595 5.572-.756 11.97-.48 19.018.5 13 2.456 28.31 5.95 46.833 6.468 34.3 17.102 73.355 27.386 111.126 13.296 48.833 25.855 94.958 27.363 123.732.406 7.746.25 15.092-.464 21.833-.672 6.35-1.86 12.35-3.527 17.828-1.558 5.117-3.583 9.932-6.017 14.313-2.244 4.038-4.907 7.833-7.916 11.28-11.523 13.2-26.45 19.622-38.442 24.783-5.5 2.37-10.268 4.42-13.876 6.74-3.796 2.442-5.83 4.913-6.4 7.78-.592 2.967.347 6.534 2.87 10.904 2.77 4.8 7.44 10.553 14.275 17.592 11.563 11.91 42.07 37.405 83.693 69.952 44.207 34.566 95.043 72.477 143.145 106.75l76.083 52.65c25.793 17.25 49.213 32.198 69.6 44.432 22.214 13.324 41.054 23.55 55.996 30.398 16.096 7.376 27.86 10.927 34.966 10.554m.053 1c-60.638 3.178-417.376-266.75-464.264-315.04-63.43-65.323 65.46-14.573 59.216-133.693-3.815-72.795-78.72-257.413-56.834-316.32 10.79-29.04 39.598-40.966 77.752-42.966 103.885-5.444 277.1 62.664 344.88 59.112 143.013-7.494 267.734 154.078 278.573 360.883 10.838 206.792-96.32 380.528-239.32 388.023z" fill="#707070"/></g></svg>