<svg xmlns="http://www.w3.org/2000/svg" width="120.82" height="130" viewBox="0 0 120.82 130"><path d="M51.89,116.228a5.908,5.908,0,0,0-6.978-5.809c-7.733,1.419-17.5,1.633-20.094-5.659A33.717,33.717,0,0,0,13.967,90.493a7.091,7.091,0,0,1-.984-.646,5.907,5.907,0,0,0-5.5-3.813H7.456a5.905,5.905,0,0,0-5.907,5.879c-.023,4.817,4.791,7.9,6.744,8.948a26.234,26.234,0,0,1,5.458,8.03c2.152,6.046,8.405,15.219,26.382,14.036.006.208.012.4.014.583l.026,1.581a5.908,5.908,0,0,0,11.815,0l-.029-1.881C51.93,122.089,51.89,120.468,51.89,116.228ZM114.9,26.871c.188-.738.372-1.558.534-2.481a37.087,37.087,0,0,0-2.411-19.453A5.919,5.919,0,0,0,109.39,1.51C107.287.8,99.522-.6,84.672,8.895a81.932,81.932,0,0,0-37.536,0C32.347-.456,24.622.812,22.54,1.482a5.892,5.892,0,0,0-3.73,3.45A37.219,37.219,0,0,0,16.427,24.76c.144.756.3,1.454.462,2.094a37.036,37.036,0,0,0-7.416,22.62,49.751,49.751,0,0,0,.251,5.446c1.973,27.19,19.7,35.353,32.044,38.157-.257.738-.49,1.529-.7,2.365a5.909,5.909,0,0,0,11.475,2.827,9.915,9.915,0,0,1,2.763-5.186,5.9,5.9,0,0,0-3.225-10.309c-20.405-2.331-29.264-10.644-30.6-28.937a39.053,39.053,0,0,1-.2-4.361,25.152,25.152,0,0,1,5.432-16.026,17.853,17.853,0,0,1,1.157-1.367,5.907,5.907,0,0,0,1.111-6.052,20.012,20.012,0,0,1-.917-3.283,24.183,24.183,0,0,1,.464-9.542A44.558,44.558,0,0,1,42.8,20.173a5.959,5.959,0,0,0,4.889.785,69.574,69.574,0,0,1,36.466.006,5.94,5.94,0,0,0,4.907-.813,44.732,44.732,0,0,1,14.209-7.032,23.865,23.865,0,0,1,.516,9.323,18.933,18.933,0,0,1-1,3.588,5.907,5.907,0,0,0,1.111,6.052c.456.513.912,1.067,1.321,1.586a24.35,24.35,0,0,1,5.328,15.807,41.574,41.574,0,0,1-.222,4.592c-1.3,18.051-10.194,26.37-30.694,28.707a5.907,5.907,0,0,0-3.222,10.315,9.634,9.634,0,0,1,2.755,5.365,18.082,18.082,0,0,1,.545,4.84v13.788c-.058,3.825-.058,6.692-.058,8.007a5.907,5.907,0,0,0,11.815,0c0-1.281,0-4.09.058-7.915v-13.88a28.838,28.838,0,0,0-.914-7.748,25.146,25.146,0,0,0-.687-2.458A38.473,38.473,0,0,0,122.093,55.14a51.38,51.38,0,0,0,.271-5.665,36.217,36.217,0,0,0-7.459-22.6Z" transform="translate(-1.549 -0.997)" fill="#113f67"/></svg>