<svg xmlns="http://www.w3.org/2000/svg" width="129.689" height="130" viewBox="0 0 129.689 130"><path d="M97.964,46.738a32.821,32.821,0,0,0-15.539,3.9,6.052,6.052,0,0,0-5.661-3.9H52.536A6.054,6.054,0,0,0,46.479,52.8v72.684a6.053,6.053,0,0,0,6.057,6.057H76.764a6.053,6.053,0,0,0,6.057-6.057V92.166a6.057,6.057,0,0,1,12.114,0v33.313a6.053,6.053,0,0,0,6.057,6.057H125.22a6.053,6.053,0,0,0,6.057-6.057V80.052A33.355,33.355,0,0,0,97.964,46.738Zm21.2,72.684H107.049V92.166a18.171,18.171,0,0,0-36.342,0v27.256H58.593V58.852H70.707v4.259A6.06,6.06,0,0,0,81.5,66.9a21.094,21.094,0,0,1,37.667,13.155Zm-84.8-72.684H10.137A6.054,6.054,0,0,0,4.08,52.8v72.684a6.053,6.053,0,0,0,6.057,6.057H34.365a6.053,6.053,0,0,0,6.057-6.057V52.8a6.054,6.054,0,0,0-6.057-6.057Zm-6.057,72.684H16.194V58.852H28.308ZM22.34,1.571A19.581,19.581,0,1,0,22,40.681h.172a19.585,19.585,0,1,0,.172-39.11Zm-.172,27H22A7.4,7.4,0,0,1,13.7,21.126c0-4.519,3.389-7.441,8.636-7.441A7.471,7.471,0,0,1,30.8,21.126C30.8,25.645,27.409,28.567,22.168,28.567Z" transform="translate(-1.588 -1.536)" fill="#113f67"/></svg>